<svg width="101" height="100" viewBox="0 0 101 100" fill="none" xmlns="http://www.w3.org/2000/svg">
<rect x="0.649994" width="100" height="100" rx="50" fill="#B2C30F"/>
<g clip-path="url(#clip0_46_2308)">
<path d="M65.73 47.88H75.41C75.89 49.09 77.25 49.68 78.46 49.2C79.67 48.72 80.26 47.36 79.78 46.15C79.3 44.94 77.94 44.35 76.73 44.83C76.13 45.07 75.65 45.55 75.41 46.15H65.73V41.9H71.97C72.45 41.9 72.83 41.51 72.83 41.04V35.34H75.41C75.89 36.55 77.25 37.14 78.46 36.66C79.67 36.18 80.26 34.82 79.78 33.61C79.3 32.4 77.94 31.81 76.73 32.29C76.13 32.53 75.65 33.01 75.41 33.61H71.97C71.49 33.61 71.11 34 71.11 34.47V40.17H65.73V35.79C65.73 35.31 65.34 34.93 64.87 34.93H60.49V29.55H66.19C66.67 29.55 67.05 29.16 67.05 28.69V25.25C68.26 24.77 68.84 23.41 68.37 22.2C67.89 20.99 66.53 20.41 65.32 20.88C64.11 21.36 63.53 22.72 64 23.93C64.24 24.53 64.72 25.01 65.32 25.25V27.83H59.62C59.14 27.83 58.76 28.22 58.76 28.69V34.93H54.51V25.24C55.72 24.76 56.3 23.4 55.83 22.19C55.35 20.98 53.99 20.4 52.78 20.87C51.57 21.35 50.99 22.71 51.46 23.92C51.7 24.52 52.18 25 52.78 25.24V34.92H48.54V25.24C49.75 24.76 50.34 23.4 49.86 22.19C49.38 20.98 48.02 20.39 46.81 20.87C45.6 21.35 45.01 22.71 45.49 23.92C45.73 24.52 46.21 25 46.81 25.24V34.92H42.56V28.68C42.56 28.2 42.17 27.82 41.7 27.82H36V25.24C37.21 24.76 37.8 23.4 37.32 22.19C36.84 20.98 35.48 20.39 34.27 20.87C33.06 21.35 32.47 22.71 32.95 23.92C33.19 24.52 33.67 25 34.27 25.24V28.68C34.27 29.16 34.66 29.54 35.13 29.54H40.83V34.92H36.45C35.97 34.92 35.59 35.31 35.59 35.78V40.16H30.21V34.46C30.21 33.98 29.82 33.6 29.35 33.6H25.91C25.43 32.39 24.07 31.8 22.86 32.28C21.65 32.76 21.06 34.12 21.54 35.33C22.02 36.54 23.38 37.13 24.59 36.65C25.19 36.41 25.67 35.93 25.91 35.33H28.49V41.03C28.49 41.51 28.88 41.89 29.35 41.89H35.59V46.14H25.89C25.41 44.93 24.05 44.35 22.84 44.82C21.63 45.3 21.05 46.66 21.52 47.87C22 49.08 23.36 49.66 24.57 49.19C25.17 48.95 25.65 48.47 25.89 47.87H35.57V52.11H25.89C25.41 50.9 24.05 50.31 22.84 50.79C21.63 51.27 21.04 52.63 21.52 53.84C22 55.05 23.36 55.64 24.57 55.16C25.17 54.92 25.65 54.44 25.89 53.84H35.57V58.09H29.33C28.85 58.09 28.47 58.48 28.47 58.95V64.65H25.89C25.41 63.44 24.05 62.85 22.84 63.33C21.63 63.81 21.04 65.17 21.52 66.38C22 67.59 23.36 68.18 24.57 67.7C25.17 67.46 25.65 66.98 25.89 66.38H29.33C29.81 66.38 30.19 65.99 30.19 65.52V59.82H35.57V64.2C35.57 64.68 35.96 65.06 36.43 65.06H40.81V70.44H35.11C34.63 70.44 34.25 70.83 34.25 71.3V74.74C33.04 75.22 32.46 76.58 32.93 77.79C33.41 79 34.77 79.58 35.98 79.11C37.19 78.63 37.77 77.27 37.3 76.06C37.06 75.46 36.58 74.98 35.98 74.74V72.16H41.68C42.16 72.16 42.54 71.77 42.54 71.3V65.06H46.79V74.74C45.58 75.22 45 76.58 45.47 77.79C45.95 79 47.31 79.58 48.52 79.11C49.73 78.63 50.31 77.27 49.84 76.06C49.6 75.46 49.12 74.98 48.52 74.74V65.06H52.76V74.74C51.55 75.22 50.96 76.58 51.44 77.79C51.92 79 53.28 79.59 54.49 79.11C55.7 78.63 56.29 77.27 55.81 76.06C55.57 75.46 55.09 74.98 54.49 74.74V65.06H58.74V71.3C58.74 71.78 59.13 72.16 59.6 72.16H65.3V74.74C64.09 75.22 63.5 76.58 63.98 77.79C64.46 79 65.82 79.59 67.03 79.11C68.24 78.63 68.83 77.27 68.35 76.06C68.11 75.46 67.63 74.98 67.03 74.74V71.3C67.03 70.82 66.64 70.44 66.17 70.44H60.47V65.06H64.85C65.33 65.06 65.71 64.67 65.71 64.2V59.82H71.09V65.52C71.09 66 71.48 66.38 71.95 66.38H75.39C75.87 67.59 77.23 68.17 78.44 67.7C79.65 67.22 80.23 65.86 79.76 64.65C79.28 63.44 77.92 62.86 76.71 63.33C76.11 63.57 75.63 64.05 75.39 64.65H72.81V58.95C72.81 58.47 72.42 58.09 71.95 58.09H65.71V53.84H75.39C75.87 55.05 77.23 55.63 78.44 55.16C79.65 54.68 80.23 53.32 79.76 52.11C79.28 50.9 77.92 50.32 76.71 50.79C76.11 51.03 75.63 51.51 75.39 52.11H65.71V47.87L65.73 47.88ZM77.59 46.4C77.93 46.4 78.21 46.68 78.21 47.02C78.21 47.36 77.93 47.64 77.59 47.64C77.25 47.64 76.97 47.36 76.97 47.02C76.97 46.68 77.25 46.4 77.59 46.4ZM77.59 33.86C77.93 33.86 78.21 34.14 78.21 34.48C78.21 34.82 77.93 35.1 77.59 35.1C77.25 35.1 76.97 34.82 76.97 34.48C76.97 34.14 77.25 33.86 77.59 33.86ZM66.18 22.45C66.52 22.45 66.8 22.73 66.8 23.07C66.8 23.41 66.52 23.69 66.18 23.69C65.84 23.69 65.56 23.41 65.56 23.07C65.56 22.73 65.84 22.45 66.18 22.45ZM53.64 22.45C53.98 22.45 54.26 22.73 54.26 23.07C54.26 23.41 53.98 23.69 53.64 23.69C53.3 23.69 53.02 23.41 53.02 23.07C53.02 22.73 53.3 22.45 53.64 22.45ZM47.66 22.45C48 22.45 48.28 22.73 48.28 23.07C48.28 23.41 48 23.69 47.66 23.69C47.32 23.69 47.04 23.41 47.04 23.07C47.04 22.73 47.32 22.45 47.66 22.45ZM35.13 22.45C35.47 22.45 35.75 22.73 35.75 23.07C35.75 23.41 35.47 23.69 35.13 23.69C34.79 23.69 34.51 23.41 34.51 23.07C34.51 22.73 34.79 22.45 35.13 22.45ZM23.71 35.09C23.37 35.09 23.09 34.81 23.09 34.47C23.09 34.13 23.37 33.85 23.71 33.85C24.05 33.85 24.33 34.13 24.33 34.47C24.33 34.81 24.05 35.09 23.71 35.09ZM23.71 47.63C23.37 47.63 23.09 47.35 23.09 47.01C23.09 46.67 23.37 46.39 23.71 46.39C24.05 46.39 24.33 46.67 24.33 47.01C24.33 47.35 24.05 47.63 23.71 47.63ZM23.71 53.61C23.37 53.61 23.09 53.33 23.09 52.99C23.09 52.65 23.37 52.37 23.71 52.37C24.05 52.37 24.33 52.65 24.33 52.99C24.33 53.33 24.05 53.61 23.71 53.61ZM23.71 66.14C23.37 66.14 23.09 65.86 23.09 65.52C23.09 65.18 23.37 64.9 23.71 64.9C24.05 64.9 24.33 65.18 24.33 65.52C24.33 65.86 24.05 66.14 23.71 66.14ZM35.13 77.56C34.79 77.56 34.51 77.28 34.51 76.94C34.51 76.6 34.79 76.32 35.13 76.32C35.47 76.32 35.75 76.6 35.75 76.94C35.75 77.28 35.47 77.56 35.13 77.56ZM47.66 77.56C47.32 77.56 47.04 77.28 47.04 76.94C47.04 76.6 47.32 76.32 47.66 76.32C48 76.32 48.28 76.6 48.28 76.94C48.28 77.28 48 77.56 47.66 77.56ZM53.64 77.56C53.3 77.56 53.02 77.28 53.02 76.94C53.02 76.6 53.3 76.32 53.64 76.32C53.98 76.32 54.26 76.6 54.26 76.94C54.26 77.28 53.98 77.56 53.64 77.56ZM66.18 77.56C65.84 77.56 65.56 77.28 65.56 76.94C65.56 76.6 65.84 76.32 66.18 76.32C66.52 76.32 66.8 76.6 66.8 76.94C66.8 77.28 66.52 77.56 66.18 77.56ZM77.59 64.91C77.93 64.91 78.21 65.19 78.21 65.53C78.21 65.87 77.93 66.15 77.59 66.15C77.25 66.15 76.97 65.87 76.97 65.53C76.97 65.19 77.25 64.91 77.59 64.91ZM77.59 52.37C77.93 52.37 78.21 52.65 78.21 52.99C78.21 53.33 77.93 53.61 77.59 53.61C77.25 53.61 76.97 53.33 76.97 52.99C76.97 52.65 77.25 52.37 77.59 52.37ZM64 63.35H37.31V36.66H64V63.35Z" fill="white"/>
<path d="M60.41 39.37H40.89C40.41 39.37 40.03 39.76 40.03 40.23V59.75C40.03 60.23 40.42 60.61 40.89 60.61H60.41C60.89 60.61 61.27 60.22 61.27 59.75V40.23C61.27 39.75 60.88 39.37 60.41 39.37ZM59.55 58.9H41.76V41.11H59.55V58.9Z" fill="white"/>
<path d="M57.45 51.2799C57.93 51.2799 58.31 50.8899 58.31 50.4199V45.5399C58.31 45.0599 57.92 44.6799 57.45 44.6799C56.98 44.6799 56.59 45.0699 56.59 45.5399V50.4199C56.59 50.8999 56.98 51.2799 57.45 51.2799Z" fill="white"/>
</g>
<defs>
<clipPath id="clip0_46_2308">
<rect width="58.58" height="58.58" fill="white" transform="translate(21.36 20.71)"/>
</clipPath>
</defs>
</svg>
