<svg width="22" height="20" viewBox="0 0 22 20" fill="none" xmlns="http://www.w3.org/2000/svg">
<path d="M20.75 1H12.5M20.75 5.5H12.5M20.75 10H12.5M20.75 19H12.5M20.75 14.5H12.5M1.25 1.75V7.75C1.25 7.94891 1.32902 8.13968 1.46967 8.28033C1.61032 8.42098 1.80109 8.5 2 8.5H8C8.19891 8.5 8.38968 8.42098 8.53033 8.28033C8.67098 8.13968 8.75 7.94891 8.75 7.75V1.75C8.75 1.55109 8.67098 1.36032 8.53033 1.21967C8.38968 1.07902 8.19891 1 8 1H2C1.80109 1 1.61032 1.07902 1.46967 1.21967C1.32902 1.36032 1.25 1.55109 1.25 1.75ZM1.25 12.25V18.25C1.25 18.4489 1.32902 18.6397 1.46967 18.7803C1.61032 18.921 1.80109 19 2 19H8C8.19891 19 8.38968 18.921 8.53033 18.7803C8.67098 18.6397 8.75 18.4489 8.75 18.25V12.25C8.75 12.0511 8.67098 11.8603 8.53033 11.7197C8.38968 11.579 8.19891 11.5 8 11.5H2C1.80109 11.5 1.61032 11.579 1.46967 11.7197C1.32902 11.8603 1.25 12.0511 1.25 12.25Z" stroke="#343F43" stroke-linecap="round" stroke-linejoin="round"/>
</svg>
